<?xml version="1.0" encoding="UTF-8"?>
<!DOCTYPE svg PUBLIC "-//W3C//DTD SVG 1.1//EN" "http://www.w3.org/Graphics/SVG/1.1/DTD/svg11.dtd">
<svg xmlns="http://www.w3.org/2000/svg" version="1.1" width="50px" height="50px" style="shape-rendering:geometricPrecision; text-rendering:geometricPrecision; image-rendering:optimizeQuality; fill-rule:evenodd; clip-rule:evenodd" xmlns:xlink="http://www.w3.org/1999/xlink">
  <g>
    <path style="opacity:1" fill="#000000" d="M 7.5,-0.5 C 8.5,-0.5 9.5,-0.5 10.5,-0.5C 13.0251,4.19541 14.3585,4.19541 14.5,-0.5C 15.5,-0.5 16.5,-0.5 17.5,-0.5C 19.1555,3.223 20.4888,3.223 21.5,-0.5C 22.1667,-0.5 22.8333,-0.5 23.5,-0.5C 25.1455,3.06904 27.3122,3.40237 30,0.5C 35.8731,2.91105 39.3731,7.24438 40.5,13.5C 43.6716,14.3314 45.3383,16.3314 45.5,19.5C 43.712,19.2148 42.0453,19.5481 40.5,20.5C 41.7472,22.323 42.4139,24.323 42.5,26.5C 41.1667,26.5 39.8333,26.5 38.5,26.5C 38.6621,28.5273 38.4955,30.5273 38,32.5C 37.2904,33.9733 36.1238,34.6399 34.5,34.5C 33.6279,39.5272 32.6279,44.5272 31.5,49.5C 30.1667,49.5 28.8333,49.5 27.5,49.5C 27.6309,48.6236 27.2975,47.9569 26.5,47.5C 21.2785,49.4436 19.4452,47.7769 21,42.5C 19.3005,43.4061 17.4672,43.7394 15.5,43.5C 15.5,41.1667 15.5,38.8333 15.5,36.5C 8.93706,38.7756 7.27039,36.9423 10.5,31C 8.21986,30.7674 6.21986,29.934 4.5,28.5C 7.3104,23.8561 10.9771,20.0227 15.5,17C 8.35512,13.2104 5.68845,7.37709 7.5,-0.5 Z M 17.5,4.5 C 21.7643,4.76442 26.0977,4.76442 30.5,4.5C 36.9746,8.69785 38.3079,13.8645 34.5,20C 36.854,21.378 36.854,22.878 34.5,24.5C 36.3344,27.7035 35.8344,30.3701 33,32.5C 31.9783,31.646 31.1449,30.646 30.5,29.5C 31.5,27.5 32.5,25.5 33.5,23.5C 32.635,22.4173 31.635,22.2506 30.5,23C 26.2418,27.6706 26.5752,31.8372 31.5,35.5C 30.8546,38.2283 30.0213,40.8949 29,43.5C 27.4126,42.273 26.0793,42.6063 25,44.5C 24.8195,42.5116 24.9862,40.5116 25.5,38.5C 23.0637,38.317 20.897,38.9837 19,40.5C 18.8253,37.8428 18.9919,35.1761 19.5,32.5C 17.1806,33.167 14.8473,33.3336 12.5,33C 16.771,28.884 15.771,26.884 9.5,27C 13.4577,22.6965 17.791,18.8631 22.5,15.5C 23.3857,14.675 23.719,13.675 23.5,12.5C 19.172,14.4574 15.3387,13.7908 12,10.5C 9.37913,5.68951 10.2125,4.68951 14.5,7.5C 15.8549,6.81181 16.8549,5.81181 17.5,4.5 Z"/>
  </g>
  <g>
    <path style="opacity:1" fill="#000000" d="M 27.5,14.5 C 28.8333,14.5 30.1667,14.5 31.5,14.5C 31.5,15.8333 31.5,17.1667 31.5,18.5C 30.1667,18.5 28.8333,18.5 27.5,18.5C 27.5,17.1667 27.5,15.8333 27.5,14.5 Z"/>
  </g>
</svg>
